<svg width="191" height="150" viewBox="0 0 191 150" fill="none" xmlns="http://www.w3.org/2000/svg">
<path d="M182.955 134.768L182.955 134.768C182.388 135.517 181.775 136.251 181.121 136.966C180.936 137.169 180.949 137.483 181.15 137.67C179.639 139.273 177.93 140.774 176.085 142.135C175.923 141.913 175.612 141.863 175.389 142.023C173.839 143.137 172.197 144.151 170.499 145.042C170.256 145.17 170.161 145.471 170.288 145.715C168.257 146.75 166.152 147.612 164.033 148.262C163.955 147.999 163.679 147.848 163.415 147.925C162.486 148.195 161.557 148.424 160.632 148.608L160.73 149.098L160.632 148.608C159.59 148.815 158.551 148.986 157.517 149.12C157.244 149.156 157.051 149.405 157.085 149.678C154.552 149.98 152.048 150.068 149.592 149.949C149.607 149.674 149.398 149.439 149.123 149.423C146.999 149.295 144.914 149.01 142.882 148.573C142.613 148.515 142.348 148.686 142.288 148.954C139.83 148.394 137.448 147.612 135.166 146.617C135.278 146.366 135.166 146.071 134.915 145.958C133.002 145.095 131.162 144.077 129.41 142.912C129.181 142.759 128.872 142.821 128.718 143.048C126.671 141.648 124.745 140.045 122.963 138.247C123.159 138.054 123.164 137.74 122.973 137.542C122.248 136.792 121.548 136.008 120.874 135.191C120.169 134.336 119.496 133.457 118.857 132.553C118.698 132.328 118.387 132.275 118.162 132.432C116.665 130.268 115.353 127.967 114.224 125.529C114.474 125.415 114.585 125.12 114.472 124.869C113.577 122.885 112.804 120.809 112.151 118.64C112.071 118.376 111.794 118.226 111.53 118.304C110.81 115.833 110.244 113.245 109.831 110.537C110.103 110.497 110.292 110.244 110.252 109.971C109.943 107.834 109.728 105.621 109.608 103.332C109.593 103.057 109.359 102.845 109.084 102.859C108.965 100.299 108.963 97.6477 109.078 94.9025C109.354 94.9147 109.587 94.7018 109.6 94.4264C109.651 93.329 109.721 92.2165 109.81 91.0888C109.883 90.1596 109.963 89.2398 110.051 88.3291C110.077 88.0545 109.876 87.8104 109.601 87.7836C109.817 85.6153 110.075 83.4979 110.377 81.4275C110.649 81.4678 110.903 81.2796 110.944 81.0068C111.221 79.1538 111.534 77.339 111.883 75.5594C111.936 75.2888 111.76 75.0264 111.49 74.9727C111.916 72.8456 112.396 70.768 112.93 68.7351C113.196 68.8057 113.469 68.6475 113.541 68.3811C114.022 66.5822 114.547 64.8187 115.117 63.087C115.203 62.8251 115.061 62.5429 114.799 62.4562C115.482 60.4156 116.227 58.4184 117.037 56.4589C117.291 56.5648 117.583 56.445 117.69 56.1908C118.404 54.4894 119.167 52.8166 119.981 51.1682C120.103 50.921 120.002 50.6218 119.755 50.4992C120.708 48.5954 121.729 46.7239 122.82 44.8789C123.056 45.0197 123.363 44.9425 123.504 44.7059C124.443 43.1369 125.434 41.5867 126.477 40.0515C126.632 39.8234 126.573 39.513 126.346 39.3576C127.539 37.62 128.801 35.9016 130.132 34.1971C130.348 34.3672 130.662 34.3297 130.833 34.1132C131.4 33.3938 131.979 32.6768 132.572 31.9617L132.186 31.6428L132.572 31.9617C133.148 31.2655 133.742 30.576 134.352 29.8936C134.536 29.6881 134.519 29.3729 134.314 29.1887C135.714 27.6435 137.197 26.136 138.753 24.6721C138.941 24.8733 139.257 24.8844 139.459 24.6966C140.782 23.4655 142.158 22.2657 143.579 21.1009C143.792 20.9262 143.823 20.6119 143.649 20.3983C145.279 19.0775 146.965 17.8028 148.7 16.5795C148.858 16.8051 149.169 16.8602 149.395 16.7025C150.887 15.662 152.414 14.6597 153.969 13.6989C154.204 13.554 154.277 13.2466 154.133 13.0118C155.933 11.9119 157.772 10.8676 159.639 9.88387C159.767 10.128 160.068 10.2227 160.313 10.0954C161.934 9.25121 163.577 8.45314 165.235 7.70459C165.486 7.59113 165.598 7.2957 165.485 7.0443C167.424 6.18065 169.383 5.38454 171.351 4.66132C171.446 4.9202 171.732 5.05411 171.991 4.96046C173.719 4.33643 175.454 3.76921 177.189 3.26237C177.454 3.1851 177.606 2.90833 177.529 2.64368C179.583 2.05702 181.638 1.55478 183.682 1.14288C183.735 1.41301 183.997 1.58917 184.268 1.53654C185.166 1.36172 186.063 1.20462 186.956 1.06577L187.744 0.943253C188.017 0.900833 188.203 0.645248 188.161 0.372375L189.274 0.199326C189.317 0.472183 189.572 0.658997 189.845 0.616577L190.056 0.58374V3.25189C190.056 3.52803 190.28 3.75189 190.556 3.75189V11.4236C190.28 11.4236 190.056 11.6474 190.056 11.9236V15.1755V18.4274C190.056 18.7035 190.28 18.9274 190.556 18.9274V26.5991C190.28 26.5991 190.056 26.8229 190.056 27.0991V29.9612L189.783 30.0298C189.515 30.0972 189.353 30.3689 189.42 30.6367L188.654 30.8294C188.587 30.5616 188.315 30.3992 188.047 30.4665L187.397 30.6303C186.507 30.8542 185.614 31.109 184.722 31.3932C184.459 31.477 184.313 31.7582 184.397 32.0214C184.397 32.0222 184.398 32.023 184.398 32.0239C182.433 32.6724 180.466 33.4639 178.518 34.3813C178.517 34.3806 178.517 34.38 178.517 34.3793C178.397 34.1305 178.098 34.0259 177.849 34.1457C176.202 34.9387 174.57 35.8199 172.965 36.7789C172.728 36.9205 172.651 37.2275 172.792 37.4646C172.793 37.4651 172.793 37.4657 172.793 37.4662C171.002 38.5556 169.246 39.7426 167.542 41.0128C167.542 41.0123 167.541 41.0118 167.541 41.0114C167.374 40.7912 167.061 40.7478 166.84 40.9144C165.368 42.0287 163.936 43.2043 162.557 44.4321C162.35 44.6157 162.332 44.9317 162.515 45.138C162.516 45.1385 162.516 45.1389 162.517 45.1394C160.94 46.5628 159.434 48.0545 158.015 49.6002C158.015 49.5997 158.014 49.5993 158.014 49.5989C157.809 49.4137 157.493 49.4298 157.308 49.6347C156.055 51.0213 154.873 52.4501 153.773 53.9111C153.607 54.1317 153.651 54.4452 153.871 54.6113C153.872 54.6117 153.872 54.6122 153.873 54.6126C152.593 56.3433 151.432 58.1171 150.409 59.917C150.409 59.9166 150.408 59.9161 150.407 59.9157C150.165 59.7818 149.861 59.8691 149.727 60.1106C149.273 60.9295 148.848 61.7539 148.453 62.5823L148.904 62.7976L148.453 62.5823C147.982 63.5686 147.535 64.5821 147.119 65.5985C147.014 65.854 147.137 66.146 147.392 66.2507C147.393 66.2509 147.393 66.2512 147.394 66.2514C146.361 68.8356 145.533 71.4179 145.035 73.5946C145.033 73.5943 145.032 73.594 145.031 73.5937C144.761 73.5364 144.495 73.709 144.438 73.9791C144.166 75.26 144.012 76.4063 144.012 77.3208C144.012 77.4183 144.011 77.5133 144.011 77.6052C144.01 77.8828 144.009 78.132 144.019 78.3347C144.033 78.6105 144.268 78.8227 144.544 78.8087C144.566 78.8076 144.588 78.805 144.61 78.801C144.635 78.8515 144.667 78.8914 144.706 78.921C144.905 79.071 145.305 78.9548 146.104 78.6197C146.105 78.6205 146.105 78.6212 146.105 78.622C146.215 78.8753 146.51 78.9915 146.763 78.8816C146.889 78.8268 147.024 78.7677 147.168 78.705C147.188 78.696 147.209 78.687 147.23 78.6779C147.37 78.6166 147.517 78.5522 147.671 78.4852L147.671 78.4852C148.157 78.2733 148.706 78.0965 149.348 77.9531C149.615 77.8936 149.783 77.6317 149.729 77.3653C150.792 77.1683 152.07 77.0506 153.664 76.9997C153.672 77.2746 153.9 77.4922 154.175 77.486C154.749 77.4731 155.363 77.468 156.021 77.4703C157.023 77.474 158.01 77.5143 158.981 77.5902C159.255 77.6117 159.495 77.4076 159.518 77.1339C161.907 77.3516 164.198 77.7834 166.377 78.4137C166.299 78.6768 166.447 78.9541 166.71 79.0343C168.627 79.6187 170.452 80.3601 172.176 81.2469C172.42 81.3727 172.72 81.2775 172.847 81.0345C174.922 82.1424 176.847 83.461 178.606 84.971C178.426 85.1777 178.446 85.4915 178.651 85.6738C180.119 86.974 181.464 88.4123 182.675 89.9768C182.843 90.1941 183.155 90.2347 183.373 90.0684C184.751 91.9056 185.951 93.9077 186.954 96.0565C186.704 96.1708 186.593 96.4654 186.706 96.7161C187.498 98.4769 188.158 100.336 188.677 102.283C188.748 102.549 189.02 102.707 189.286 102.638C189.84 104.833 190.219 107.134 190.407 109.527C190.133 109.547 189.926 109.785 189.945 110.06C190.011 111.033 190.045 112.022 190.047 113.025C190.048 113.883 190.029 114.719 189.989 115.534C189.975 115.809 190.186 116.043 190.461 116.058C190.339 118.063 190.086 119.952 189.692 121.76C189.424 121.7 189.158 121.866 189.095 122.134C188.711 123.773 188.206 125.345 187.571 126.878C187.466 127.131 187.585 127.422 187.838 127.529C187.093 129.249 186.185 130.922 185.101 132.588C184.872 132.437 184.563 132.499 184.41 132.728C183.955 133.407 183.471 134.087 182.955 134.768ZM36.3822 79.3027L36.3824 79.3026C36.9467 79.084 37.6616 78.8508 38.4574 78.6199C38.7216 78.5432 38.8741 78.2674 38.799 78.0031C40.3599 77.5689 42.1298 77.1625 43.6167 76.894C43.6637 77.1645 43.9202 77.3468 44.1915 77.3016C45.1174 77.1475 45.8641 77.0641 46.3161 77.0693C46.6197 77.0728 47.1265 77.1125 47.7781 77.1833C48.0518 77.213 48.2978 77.016 48.3289 76.7428C49.2114 76.8477 50.2616 76.9936 51.342 77.1624C51.2988 77.4345 51.484 77.6905 51.7562 77.7344C52.2543 77.8148 52.7543 77.8993 53.2425 77.9863C54.1527 78.1485 55.0484 78.3456 55.9283 78.5764C56.1943 78.6461 56.4664 78.4881 56.5379 78.2231C58.6343 78.8057 60.6412 79.5784 62.5415 80.5251C62.4173 80.7698 62.5135 81.0693 62.7577 81.1956C64.3928 82.0411 65.9453 83.0188 67.4037 84.118C67.6233 84.2834 67.9349 84.2406 68.1017 84.0226C69.7932 85.338 71.3558 86.8168 72.7716 88.4422C72.5633 88.6209 72.5378 88.9344 72.7153 89.1444C73.8891 90.533 74.9563 92.0266 75.9058 93.615C76.0469 93.851 76.3518 93.9286 76.5884 93.7894C77.6472 95.6197 78.5536 97.5698 79.2915 99.6247C79.0324 99.7157 78.895 99.9989 78.9845 100.259C79.2803 101.119 79.5466 101.998 79.782 102.894C80.1061 104.127 80.3603 105.562 80.5423 107.106C80.5745 107.379 80.8215 107.575 81.0946 107.544C81.4597 110.972 81.4774 114.829 81.1463 118.14C80.8731 118.111 80.6274 118.308 80.5966 118.582C80.4174 120.173 80.1553 121.607 79.8139 122.77C79.545 123.688 79.2391 124.591 78.898 125.479C78.7994 125.735 78.9266 126.023 79.1822 126.123C78.3455 128.213 77.3158 130.215 76.1154 132.107C75.8845 131.959 75.5766 132.024 75.4262 132.254C74.3837 133.85 73.2171 135.365 71.9402 136.787C71.7563 136.992 71.7724 137.306 71.9756 137.491C70.4587 139.136 68.7946 140.653 67.0053 142.021C66.8398 141.802 66.5281 141.757 66.3075 141.921C64.7828 143.057 63.1689 144.084 61.4794 144.991C61.237 145.121 61.1454 145.422 61.2738 145.665C59.2963 146.694 57.2196 147.562 55.0643 148.248C54.9826 147.986 54.7044 147.838 54.4412 147.919C53.5319 148.195 52.6088 148.44 51.6736 148.65C50.9876 148.804 50.2254 148.934 49.4046 149.04C49.1319 149.075 48.9388 149.323 48.9718 149.595C47.3609 149.778 45.5669 149.872 43.7145 149.88C43.7144 149.605 43.4917 149.381 43.2163 149.38C41.6718 149.375 40.0943 149.311 38.557 149.192C38.2824 149.171 38.0424 149.375 38.02 149.65C36.1698 149.491 34.3888 149.252 32.8037 148.938C32.859 148.669 32.6871 148.406 32.4183 148.348C31.6066 148.175 30.8583 147.982 30.1914 147.77C29.099 147.423 28.0294 147.03 26.9839 146.593C26.7302 146.487 26.4386 146.605 26.331 146.858C23.8005 145.761 21.4119 144.404 19.1829 142.81C19.3441 142.588 19.2957 142.277 19.074 142.114C17.2482 140.773 15.533 139.269 13.9389 137.613C13.748 137.415 13.4331 137.408 13.2341 137.597C11.3837 135.629 9.69997 133.457 8.1992 131.102C8.43187 130.955 8.50273 130.648 8.35733 130.415C7.17288 128.511 6.10713 126.488 5.16896 124.356C5.05803 124.104 4.76437 123.99 4.51213 124.099C3.45734 121.638 2.56999 119.038 1.86282 116.314C2.12944 116.246 2.2912 115.975 2.22427 115.708C1.94933 114.61 1.70366 113.493 1.48813 112.356C1.3295 111.519 1.18869 110.544 1.06667 109.462C1.0358 109.189 0.789413 108.992 0.515839 109.021C0.302689 106.982 0.154297 104.619 0.0730743 102.126C0.348663 102.118 0.56546 101.888 0.557526 101.612C0.501923 99.6809 0.486328 97.6804 0.511887 95.7002C0.515457 95.4244 0.294952 95.1979 0.0192566 95.1938C0.058609 92.7991 0.15831 90.4452 0.320328 88.2904C0.594986 88.3119 0.835373 88.107 0.85759 87.8323C0.941193 86.7986 1.03958 85.8169 1.15285 84.9056C1.2692 83.9692 1.39384 83.0421 1.52689 82.1239C1.56644 81.8509 1.37747 81.5975 1.10468 81.5575C1.42955 79.3727 1.80232 77.238 2.22438 75.1505C2.49445 75.2057 2.75836 75.0318 2.81416 74.7617C3.19762 72.9058 3.62048 71.0878 4.08369 69.3055C4.15306 69.0386 3.99327 68.7661 3.72668 68.6961C4.28978 66.5708 4.91066 64.4957 5.59102 62.4672C5.85204 62.5555 6.13542 62.4159 6.22446 62.155C6.83275 60.3721 7.48758 58.6258 8.19006 56.9134C8.29469 56.6584 8.17313 56.3669 7.91852 56.2616C8.75784 54.2475 9.6635 52.2798 10.6374 50.3546C10.8828 50.4796 11.1833 50.3826 11.3092 50.1373C12.1618 48.4756 13.0659 46.8457 14.0229 45.2449C14.1643 45.0083 14.0876 44.702 13.8515 44.5599C14.971 42.7115 16.1611 40.9016 17.4238 39.1261C17.6478 39.2864 17.9595 39.2353 18.1205 39.0115C19.2029 37.5073 20.3383 36.0276 21.5278 34.5701C21.7021 34.3565 21.6706 34.0422 21.4576 33.8674C22.8208 32.2147 24.2536 30.5905 25.7576 28.9909C25.9579 29.1802 26.2738 29.1717 26.4636 28.9717C27.1029 28.2983 27.755 27.6291 28.4201 26.9641C29.1688 26.2154 29.9201 25.4845 30.6746 24.771C30.875 24.5815 30.8841 24.2657 30.6952 24.065C32.5368 22.3395 34.3985 20.7159 36.2889 19.1891C36.4615 19.404 36.7754 19.4387 36.9908 19.2666C38.6465 17.9438 40.3243 16.6953 42.0301 15.5173C42.2569 15.3607 42.3141 15.0501 42.1582 14.823C44.215 13.42 46.3131 12.1178 48.4625 10.9102C48.5967 11.1508 48.9004 11.2376 49.1415 11.104C50.9686 10.0917 52.8335 9.14735 54.7422 8.2672C54.9926 8.15176 55.1022 7.85559 54.9875 7.60509C57.2173 6.59241 59.5066 5.66589 61.8651 4.81964C61.9575 5.07924 62.2426 5.21527 62.5026 5.12352C63.4837 4.77728 64.4769 4.44479 65.4831 4.12561C66.5451 3.78865 67.6941 3.4536 68.8733 3.13226C69.1394 3.05977 69.2964 2.78561 69.2246 2.51953C72.1328 1.74146 75.1663 1.05762 77.493 0.639694C77.5405 0.910675 77.7981 1.09261 78.0696 1.0463C79.0353 0.881622 79.8422 0.772232 80.4271 0.729233C80.7018 0.709045 80.914 0.704605 81.0647 0.712875C81.0789 0.848236 81.0935 1.03041 81.1079 1.25905C81.1424 1.80521 81.1748 2.58775 81.2037 3.56331C81.2119 3.83908 81.4419 4.05606 81.7176 4.04828C81.771 6.04419 81.8106 8.70764 81.8288 11.7103C81.5528 11.7118 81.3302 11.9368 81.3317 12.2129C81.3372 13.2615 81.3401 14.3484 81.3401 15.4601V18.6316C81.3401 18.9078 81.5639 19.1316 81.8401 19.1316V26.5892C81.5639 26.5892 81.3401 26.8131 81.3401 27.0892V29.8694L81.0006 29.9533C80.7326 30.0196 80.569 30.2906 80.6352 30.5587L79.6875 30.793C79.6212 30.5249 79.3502 30.3613 79.0821 30.4276L78.3627 30.6055C77.6997 30.7694 76.9441 31.0004 76.1242 31.2837C75.8632 31.3739 75.7248 31.6586 75.8149 31.9195C75.8153 31.9205 75.8156 31.9215 75.816 31.9224C74.3804 32.4379 72.7535 33.1055 71.0689 33.8611C71.0687 33.8606 71.0685 33.8602 71.0683 33.8598C70.9539 33.6085 70.6574 33.4975 70.4061 33.6118C69.0261 34.2399 67.6162 34.9221 66.2478 35.6242C66.0021 35.7503 65.9051 36.0516 66.0312 36.2973C66.0314 36.2977 66.0316 36.2981 66.0318 36.2985C64.4328 37.1295 62.9024 37.983 61.5585 38.8025C61.558 38.8018 61.5576 38.8011 61.5572 38.8004C61.4112 38.5661 61.1028 38.4944 60.8684 38.6404C60.1597 39.082 59.5066 39.5135 58.9284 39.926L59.2188 40.333L58.9284 39.926C58.2775 40.3905 57.602 40.9047 56.9112 41.4588C56.6958 41.6316 56.6613 41.9463 56.834 42.1617C56.8345 42.1622 56.835 42.1628 56.8355 42.1634C55.4542 43.2919 54.0134 44.5762 52.5868 45.9407C52.5865 45.9404 52.5861 45.94 52.5858 45.9397C52.3938 45.7412 52.0772 45.736 51.8788 45.928C50.675 47.0928 49.4858 48.31 48.3551 49.5345C48.1678 49.7374 48.1804 50.0537 48.3833 50.2411C48.3836 50.2414 48.384 50.2417 48.3844 50.2421C47.0437 51.7112 45.7944 53.1841 44.7131 54.582C44.7125 54.5815 44.7118 54.581 44.7112 54.5805C44.4911 54.4137 44.1775 54.4568 44.0107 54.6769C43.4712 55.3884 42.9762 56.0802 42.5366 56.7416C41.7862 57.8704 41.0353 59.1698 40.3136 60.5625C40.1866 60.8077 40.2823 61.1095 40.5275 61.2365C40.5282 61.2369 40.5289 61.2372 40.5296 61.2376C38.9476 64.3603 37.5126 67.9275 36.5559 71.105C36.555 71.1047 36.5542 71.1045 36.5533 71.1042C36.288 71.0275 36.0108 71.1803 35.934 71.4455C35.4779 73.0219 35.1422 74.5017 34.9726 75.7783L35.4682 75.8442L34.9725 75.7783C34.9312 76.0898 34.8942 76.3742 34.8622 76.6331C34.8283 76.9072 35.023 77.1568 35.297 77.1907C35.298 77.1908 35.2989 77.1909 35.2999 77.191C35.2364 77.7659 35.2091 78.1762 35.2274 78.4591C35.1433 78.4869 35.0657 78.5374 35.0041 78.6098C34.8253 78.8202 34.8508 79.1357 35.0612 79.3146C35.2986 79.5163 35.5803 79.516 35.7757 79.4858C35.9698 79.4557 36.1814 79.3804 36.3822 79.3027Z" stroke="#909294" stroke-linecap="round" stroke-dasharray="6 8"/>
</svg>
